<?xml version="1.0" standalone="no"?>
<!DOCTYPE svg PUBLIC "-//W3C//DTD SVG 1.1//EN" "http://www.w3.org/Graphics/SVG/1.1/DTD/svg11.dtd">
<svg t="1728120929171" class="icon" viewBox="0 0 1024 1024" version="1.1"
    xmlns="http://www.w3.org/2000/svg" p-id="4858" width="32" height="32"
    xmlns:xlink="http://www.w3.org/1999/xlink">
    <path
        class="animation-path"
        d="M597.4 341.3c47 0 85.3-38.3 85.3-85.3s-38.3-85.3-85.3-85.3-85.3 38.3-85.3 85.3 38.3 85.3 85.3 85.3z"
        p-id="4859" fill="#4070ff"></path>
    <path
        class="animation-path"
        d="M992.7 608.8c19.3-19.3 31.2-46 31.2-75.4 0-29.4-11.9-56.1-31.2-75.4-12.9-12.9-29.8-20.7-47.8-25.7-12.3-79.3-45.1-151.9-93.9-211.2C834 96.2 726.9 0 597.3 0 529 0 466.9 26.8 421 70.5 244 107.8 107.1 252 79.1 432.3c-18.1 5-35 12.8-47.9 25.7C12 477.2 0 503.9 0 533.3s11.9 56.1 31.2 75.4c9.1 9.1 20.1 16.2 32 21.5C24.3 672.2 0 727.8 0 789.4c0 64.8 26.3 123.5 68.9 165.9 42.5 42.5 101.1 68.7 165.7 68.7h554.7c64.7 0 123.4-26.3 165.9-68.9 42.5-42.5 68.7-101.1 68.7-165.7 0-61.5-24.3-117.1-63.1-159.1 11.9-5.4 22.9-12.5 31.9-21.5zM597.3 85.3C691.3 85.3 768 162 768 256c0 94-76.7 170.7-170.6 170.7-94 0-170.7-76.7-170.7-170.7 0-94 76.7-170.7 170.6-170.7z m-240.7 83.5c-3.3 9-6 18.4-8.3 27.8-56.7 43-101 101.6-126.5 169.4 11.8 22.9 27.4 43.4 46.1 60.7H153.7c23.2-114.5 100-209.5 202.9-257.9z m538.3 726.1c-27 27-64.3 43.7-105.6 43.7H234.7c-41.3 0-78.7-16.7-105.6-43.7-27-27-43.7-64.4-43.7-105.6 0-41.3 16.7-78.7 43.7-105.6 27-27 64.4-43.7 105.6-43.7h94.4v110.5c0 34 27.6 61.6 61.6 61.6s61.6-27.6 61.6-61.6V640h243.9v110.5c0 34 27.6 61.6 61.6 61.6s61.5-27.6 61.5-61.6V643c29.2 5.9 55.4 20.4 75.8 40.6 26.9 27 43.7 64.4 43.7 105.7-0.2 41.3-16.9 78.7-43.9 105.6z m37.5-346.5c-3.8 3.8-9.2 6.2-15.1 6.2H106.7c-5.9 0-11.2-2.4-15.1-6.2-3.8-3.8-6.2-9.2-6.2-15.1s2.4-11.2 6.2-15.1c3.8-3.8 9.2-6.2 15.1-6.2h810.6c5.9 0 11.2 2.4 15.1 6.2 3.8 3.8 6.2 9.2 6.2 15.1s-2.4 11.3-6.2 15.1z"
        p-id="4860" fill="#4070ff"></path>
</svg>