<svg t="1743688748456" class="icon" viewBox="0 0 1024 1024" version="1.1"
        xmlns="http://www.w3.org/2000/svg" p-id="7985" width="72" height="72">
        <path class="animation-path" d="M490.06 68.91c244.2 0 442.87 198.67 442.87 442.87a439.73 439.73 0 0 1-66.49 232.45 450 450 0 0 1-173.35 160.94l-94.56 49.48H490.06c-244.2 0-442.87-198.65-442.87-442.87S245.86 68.91 490.06 68.91m0-47.19C219.43 21.72 0 241.15 0 511.78s219.43 490.05 490.06 490.05h506.51c14.63 0 27.43-12.8 27.43-27.42S1011.2 947 996.57 947H715c157.26-82.29 265.14-246.86 265.14-435.2 0-270.63-219.42-490.06-490-490.06z" fill="#4070ff" p-id="7986"></path>
        <path class="animation-path" d="M883.78 430.24a410.48 410.48 0 0 1 8.43 80.9V528c-72.47 20.22-134.83 64-177 126.4-43.82 64-60.67 141.57-48.87 217.41a420.39 420.39 0 0 1-112.92 35.39c-25.24-217.42 116.33-421.34 330.36-476.96zM103.48 403.28c59 80.89 143.25 139.88 241 168.53 42.13 11.8 85.95 18.54 128.08 18.54 40.45 0 80.9-5.06 119.66-16.86-27 38.77-48.87 79.21-64 124.72-85.99 25.28-175.31 18.54-256.22-21.91-85.94-40.45-150-111.23-182-198.87 1.68-25.28 6.74-50.56 13.48-74.15z" fill="#4070ff" p-id="7987"></path>
        <path class="animation-path" d="M668.06 489.23c-96.06 52.24-205.61 64-310.1 33.7a405.53 405.53 0 0 1-232.57-178.64 307 307 0 0 1 25.28-45.5c96.06 85.95 219.09 129.77 340.43 129.77s244.37-43.82 340.44-129.77c16.85 25.28 30.33 53.93 40.44 84.26-79.21 18.54-148.3 55.62-203.92 106.18zM711.88 844.83c-3.37-57.3 11.8-114.6 43.82-161.79s75.84-80.9 129.77-99.43c-20.23 109.54-84.27 202.23-173.59 261.22zM658 147.11c-48.88 37.08-106.18 57.3-168.53 57.3s-119.66-20.22-168.54-57.3a401.55 401.55 0 0 1 337.07 0z" fill="#4070ff" p-id="7988"></path>
        <path class="animation-path" d="M273.7 172.39c59 52.24 134.82 82.58 215.72 82.58s156.73-28.65 215.72-82.58a450.76 450.76 0 0 1 94.38 84.26c-175.28 160.11-446.61 160.11-621.89 0 28.65-32.02 60.67-60.65 96.07-84.26zM96.74 597.09a421.25 421.25 0 0 0 150 126.4 397.13 397.13 0 0 0 178.64 42.13 349.55 349.55 0 0 0 84.27-10.11 452.25 452.25 0 0 0-8.43 158.42h-11.8c-192.13-1.69-352.23-136.51-392.68-316.84z" fill="#4070ff" p-id="7989"></path>
</svg>